<?xml version="1.0" encoding="UTF-8" standalone="no"?>
<!-- Created with Inkscape (http://www.inkscape.org/) -->

<svg
   width="1920"
   height="600"
   viewBox="0 0 507.99997 158.75"
   version="1.1"
   id="svg6296"
   inkscape:version="1.2.1 (9c6d41e410, 2022-07-14)"
   sodipodi:docname="ark-logo-text.svg"
   inkscape:export-filename="arche-logo-text.png"
   inkscape:export-xdpi="96"
   inkscape:export-ydpi="96"
   xml:space="preserve"
   xmlns:inkscape="http://www.inkscape.org/namespaces/inkscape"
   xmlns:sodipodi="http://sodipodi.sourceforge.net/DTD/sodipodi-0.dtd"
   xmlns="http://www.w3.org/2000/svg"
   xmlns:svg="http://www.w3.org/2000/svg"><sodipodi:namedview
     id="namedview6298"
     pagecolor="#ffffff"
     bordercolor="#666666"
     borderopacity="1.0"
     inkscape:showpageshadow="2"
     inkscape:pageopacity="0.0"
     inkscape:pagecheckerboard="0"
     inkscape:deskcolor="#d1d1d1"
     inkscape:document-units="px"
     showgrid="false"
     inkscape:zoom="0.5946522"
     inkscape:cx="909.7755"
     inkscape:cy="353.98843"
     inkscape:window-width="1920"
     inkscape:window-height="991"
     inkscape:window-x="-9"
     inkscape:window-y="-9"
     inkscape:window-maximized="1"
     inkscape:current-layer="layer1"
     showguides="true"><inkscape:grid
       type="xygrid"
       id="grid8962"
       spacingx="1.0583333"
       spacingy="1.0583333"
       empspacing="4"
       originx="0"
       originy="0" /></sodipodi:namedview><defs
     id="defs6293" /><g
     inkscape:label="Layer 1"
     inkscape:groupmode="layer"
     id="layer1"><rect
       style="fill:#0d1117;fill-opacity:1;stroke:#000000;stroke-width:0;stroke-linecap:round;stroke-linejoin:round;stop-color:#000000"
       id="rect1635"
       width="507.99997"
       height="158.75"
       x="8.5398347e-07"
       y="5.7886609e-07"
       rx="0"
       ry="0" /><g
       id="g873"><text
         xml:space="preserve"
         style="font-size:88.607px;line-height:1.25;font-family:Arial;-inkscape-font-specification:Arial;letter-spacing:0px;word-spacing:0px;fill:#ffffff;fill-opacity:1;stroke-width:0.352562"
         x="216.50665"
         y="122.93137"
         id="text4600-5-9-2"><tspan
           sodipodi:role="line"
           id="tspan4598-4-1-1"
           style="font-style:normal;font-variant:normal;font-weight:900;font-stretch:normal;font-size:88.607px;font-family:Arial;-inkscape-font-specification:'Arial, Heavy';font-variant-ligatures:normal;font-variant-caps:normal;font-variant-numeric:normal;font-variant-east-asian:normal;fill:#ffffff;fill-opacity:1;stroke-width:0.352562"
           x="216.50665"
           y="122.93137">rk.jl</tspan></text><path
         id="rect2643-3-4-3-2-0"
         style="font-variation-settings:normal;fill:#ffffff;fill-opacity:1;stroke:#000000;stroke-width:0;stroke-linecap:round;stroke-linejoin:round;stroke-miterlimit:4;stroke-dasharray:none;stroke-dashoffset:0;stroke-opacity:1;stop-color:#000000"
         d="M 165.32685 25.638228 C 160.61195 25.638228 157.72499 28.685402 155.9295 32.354613 L 107.65544 128.13584 C 107.36094 128.72322 107.65327 128.8677 107.84148 128.7694 C 119.14714 123.41473 134.00034 119.54208 148.41213 119.66504 C 146.2369 112.90747 145.74229 105.72103 146.6882 101.83823 L 182.67153 101.83823 C 183.93831 106.75888 182.67068 117.32886 178.49814 125.3603 C 190.54808 127.88164 199.29725 127.48506 209.12986 124.42083 L 209.12986 30.981054 C 209.12986 28.129027 206.6723 25.638228 203.8444 25.638228 L 165.32685 25.638228 z M 179.49653 46.804894 A 12.7 12.7 0 0 1 192.19653 59.504893 A 12.7 12.7 0 0 1 179.49653 72.204893 A 12.7 12.7 0 0 1 166.79653 59.504893 A 12.7 12.7 0 0 1 179.49653 46.804894 z M 164.72379 87.858201 L 175.23788 91.548414 L 175.23788 99.951002 L 154.05209 99.951002 L 154.05209 91.548414 L 164.72379 87.858201 z " /></g></g></svg>
